<svg width="15" height="15" viewBox="0 0 15 15" fill="none" xmlns="http://www.w3.org/2000/svg">
<path d="M6.09375 11.4844C5.90734 11.4836 5.72863 11.41 5.5957 11.2793L2.31445 7.99805C2.18236 7.86596 2.10815 7.6868 2.10815 7.5C2.10815 7.31319 2.18236 7.13404 2.31445 7.00195C2.44654 6.86986 2.6257 6.79565 2.8125 6.79565C2.9993 6.79565 3.17846 6.86986 3.31055 7.00195L6.09375 9.78516L12.1582 3.7207C12.2236 3.6553 12.3013 3.60342 12.3867 3.56802C12.4722 3.53262 12.5638 3.5144 12.6562 3.5144C12.7487 3.5144 12.8403 3.53262 12.9258 3.56802C13.0112 3.60342 13.0889 3.6553 13.1543 3.7207C13.2197 3.78611 13.2716 3.86375 13.307 3.94921C13.3424 4.03466 13.3606 4.12625 13.3606 4.21875C13.3606 4.31124 13.3424 4.40284 13.307 4.48829C13.2716 4.57375 13.2197 4.65139 13.1543 4.7168L6.5918 11.2793C6.45887 11.41 6.28015 11.4836 6.09375 11.4844Z" fill="#111111"/>
</svg>
