<svg width="20" height="20" viewBox="0 0 20 20" fill="none" xmlns="http://www.w3.org/2000/svg">
<path d="M11.6666 5L13.5774 3.08917C13.7337 2.93294 13.9456 2.84518 14.1666 2.84518C14.3876 2.84518 14.5995 2.93294 14.7558 3.08917L16.9108 5.24417C17.067 5.40044 17.1547 5.61236 17.1547 5.83333C17.1547 6.0543 17.067 6.26623 16.9108 6.4225L14.9999 8.33333M11.6666 5L3.57742 13.0892C3.42113 13.2454 3.3333 13.4573 3.33325 13.6783V15.8333C3.33325 16.0543 3.42105 16.2663 3.57733 16.4226C3.73361 16.5789 3.94557 16.6667 4.16659 16.6667H6.32159C6.54258 16.6666 6.75451 16.5788 6.91075 16.4225L14.9999 8.33333M11.6666 5L14.9999 8.33333" stroke="gray" stroke-width="2.5" stroke-linecap="round" stroke-linejoin="round"/>
</svg>
