<svg width="15" height="15" viewBox="0 0 15 15" fill="none" xmlns="http://www.w3.org/2000/svg">
<path d="M4.375 11.25C3.33333 11.25 2.44792 10.8854 1.71875 10.1562C0.989583 9.42708 0.625 8.54167 0.625 7.5C0.625 6.45833 0.989583 5.57292 1.71875 4.84375C2.44792 4.11458 3.33333 3.75 4.375 3.75C5.0625 3.75 5.69271 3.92187 6.26562 4.26562C6.83854 4.60937 7.29167 5.0625 7.625 5.625H13.125C13.4688 5.625 13.7631 5.74729 14.0081 5.99187C14.2527 6.23687 14.375 6.53125 14.375 6.875V8.125C14.375 8.46875 14.2527 8.76292 14.0081 9.0075C13.7631 9.2525 13.4688 9.375 13.125 9.375V10C13.125 10.3438 13.0027 10.6381 12.7581 10.8831C12.5131 11.1277 12.2188 11.25 11.875 11.25H10.625C10.2812 11.25 9.98708 11.1277 9.7425 10.8831C9.4975 10.6381 9.375 10.3438 9.375 10V9.375H7.625C7.29167 9.9375 6.83854 10.3906 6.26562 10.7344C5.69271 11.0781 5.0625 11.25 4.375 11.25ZM4.375 10C5.0625 10 5.61458 9.78917 6.03125 9.3675C6.44792 8.94542 6.69792 8.53125 6.78125 8.125H10.625V10H11.875V8.125H13.125V6.875H6.78125C6.69792 6.46875 6.44792 6.05458 6.03125 5.6325C5.61458 5.21083 5.0625 5 4.375 5C3.6875 5 3.09896 5.24479 2.60938 5.73438C2.11979 6.22396 1.875 6.8125 1.875 7.5C1.875 8.1875 2.11979 8.77604 2.60938 9.26562C3.09896 9.75521 3.6875 10 4.375 10ZM4.375 8.75C4.71875 8.75 5.01292 8.6275 5.2575 8.3825C5.5025 8.13792 5.625 7.84375 5.625 7.5C5.625 7.15625 5.5025 6.86187 5.2575 6.61687C5.01292 6.37229 4.71875 6.25 4.375 6.25C4.03125 6.25 3.73708 6.37229 3.4925 6.61687C3.2475 6.86187 3.125 7.15625 3.125 7.5C3.125 7.84375 3.2475 8.13792 3.4925 8.3825C3.73708 8.6275 4.03125 8.75 4.375 8.75Z" fill="#111111"/>
</svg>
